# xmcd
#
# Track frame offsets: 
#        150
#        12484
#        26463
#        41604
#        52663
#        64902
#        77998
#        91593
#        109571
#        125371
#        138097
#        151780
#        165411
#        176305
#        188642
#        201693
#        214584
#        230230
#        242709
#        253903
#        267103
#        280502
#        292563
#
# Disc length: 4038 seconds
#
# Revision: 0
# Processed by: cddbd v1.5.2PL0 Copyright (c) Steve Scherf et al.
# Submitted via: ExactAudioCopy v1.0b1
#
DISCID=2c0fc417
DTITLE=Percy Sledge - PS Way - Take Time To Know Her
DYEAR=2006
DGENRE=R&B
TTITLE0=The Dark End Of The Street
TTITLE1=You Send Me
TTITLE2=I Had A Talk With My Woman
TTITLE3=What Am I Living For
TTITLE4=I've Been Loving You Too Long
TTITLE5=Tell It Like It Is
TTITLE6=My Special Prayer
TTITLE7=Drown In My Own Tears
TTITLE8=Just Out Of Reach (Of My Two Open Arms)
TTITLE9=Pledging My Love
TTITLE10=You Don't Miss Your Water
TTITLE11=Take Time To Know Her
TTITLE12=Feed The Flame
TTITLE13=Sudden Stop
TTITLE14=Come Softly To Me
TTITLE15=Spooky
TTITLE16=Out Of Left Field
TTITLE17=Cover Me
TTITLE18=Baby Help Me
TTITLE19=It's All Wrong But It's Alright
TTITLE20=High Cost Of Leaving
TTITLE21=Between These Arms
TTITLE22=I Love Everything About You
EXTD=
EXTT0=
EXTT1=
EXTT2=
EXTT3=
EXTT4=
EXTT5=
EXTT6=
EXTT7=
EXTT8=
EXTT9=
EXTT10=
EXTT11=
EXTT12=
EXTT13=
EXTT14=
EXTT15=
EXTT16=
EXTT17=
EXTT18=
EXTT19=
EXTT20=
EXTT21=
EXTT22=
PLAYORDER=
